<?xml version="1.0" encoding="utf-8"?>
<!-- Generator: Adobe Illustrator 21.0.2, SVG Export Plug-In . SVG Version: 6.00 Build 0)  -->
<svg version="1.1" id="Layer_1" xmlns="http://www.w3.org/2000/svg" xmlns:xlink="http://www.w3.org/1999/xlink" x="0px" y="0px"
	 viewBox="0 0 1366 768" style="enable-background:new 0 0 1366 768;" xml:space="preserve">
<style type="text/css">
	.st0{fill:#32323D;}
</style>
<g>
	<path class="st0" d="M172.9,104.6h-19.1v154.6h-17L48.7,129.4l0.5,109.5H68v20.3H5.1v-20.3h18.9V104.6H5.1V82.6h36.3l88.2,129.8
		l-0.5-107.8h-19.3V82.6h63.2V104.6z"/>
	<path class="st0" d="M186.1,231.2h28.5v27.9h-28.5V231.2z"/>
	<path class="st0" d="M381.1,209c0,30.1-21.2,50.1-53.3,50.1H239v-20.3h19.1v-136H239V82.6h87c28.3,0,47.2,18.1,47.2,45.6
		c0,17.4-8.3,31-22.2,38.6C369.6,173.5,381.1,188.8,381.1,209z M283,158h36.3c16.7,0,28.1-11,28.1-27.2s-11.6-27.2-28.8-27.2H283
		V158z M355.4,208.6c0-17.7-12-29.6-30.2-29.6H283v59.2h42C343.2,238.1,355.4,226.2,355.4,208.6z"/>
	<path class="st0" d="M495.2,129.4v23.9h-11.1c-25.9,0-42.9,17.7-42.9,44.4v41.5h23.6v20h-66v-20h18.4v-87.3h-18.4v-20h39.1
		l0.5,11.7l1.7,17.2c9-20,25.7-31.2,47.2-31.2H495.2z"/>
	<path class="st0" d="M502.5,195.4c0-39.6,23.6-66.1,58.9-66.1c35.4,0,58.7,26.5,58.7,66.1c0,39.6-23.3,66.1-58.7,66.1
		C526.1,261.5,502.5,235,502.5,195.4z M595.2,195.4c0-27-13.4-45.1-33.7-45.1c-20.3,0-34,18.1-34,45.1c0,27,13.7,45.1,34,45.1
		C581.8,240.5,595.2,222.4,595.2,195.4z"/>
	<path class="st0" d="M742.3,231.7V252c-10.4,5.7-27.8,9.5-43.4,9.5c-36.3,0-60.6-26.5-60.6-66.1c0-39.6,24-66.1,60.1-66.1
		c14.4,0,30.9,3.6,41.5,8.6v39.4h-22.9V152c-6.4-1-13-1.7-18.6-1.7c-21,0-34.9,17.7-34.9,44.1c0,27.7,16.7,46,41.7,46
		C718,240.5,732.2,237.2,742.3,231.7z"/>
	<path class="st0" d="M817.3,239.1v20h-60.8v-20h18.4v-146h-18.4v-20h42.4v166H817.3z M888.5,239.1v20h-31.1l-53.5-66.8l34.9-40.5
		h-15.1v-20h32.1v0.2l0.2-0.2h29.9v20h-19.8l-35.8,40.3l40.1,47H888.5z"/>
	<path class="st0" d="M1040.8,239.1v20h-42.4v-75.9c0-21.7-8.7-32.9-25.7-32.9c-20.3,0-34,15.5-34,38.6v50.1h21.5v20h-63.9v-20h18.4
		v-146h-18.4v-20h42.4v80.4c9-15.5,24.3-24.1,43.4-24.1c26.6,0,40.3,17.2,40.3,49.6v60.1H1040.8z"/>
	<path class="st0" d="M1053,195.4c0-39.6,23.6-66.1,58.9-66.1c35.4,0,58.7,26.5,58.7,66.1c0,39.6-23.3,66.1-58.7,66.1
		C1076.6,261.5,1053,235,1053,195.4z M1145.7,195.4c0-27-13.4-45.1-33.7-45.1s-34,18.1-34,45.1c0,27,13.7,45.1,34,45.1
		S1145.7,222.4,1145.7,195.4z"/>
	<path class="st0" d="M1230.3,111v20.8h36.3v20h-36.3v87.3h24.5v20h-67v-20h18.4v-87.3h-20v-20h20v-24.6c0-21.9,14.9-36.5,36.5-36.5
		c9.7,0,19.1,1.4,26.2,4.5v20c-5.4-2.6-11.6-3.6-18.9-3.6C1238.3,91.7,1230.3,99.3,1230.3,111z"/>
	<path class="st0" d="M1321.3,111v20.8h36.3v20h-36.3v87.3h24.5v20h-67v-20h18.4v-87.3h-20v-20h20v-24.6c0-21.9,14.9-36.5,36.5-36.5
		c9.7,0,19.1,1.4,26.2,4.5v20c-5.4-2.6-11.6-3.6-18.9-3.6C1329.4,91.7,1321.3,99.3,1321.3,111z"/>
</g>
<g>
	<path d="M126.2,283.1l-31.3,80.3h-3l-26.1-75.7l-26.2,75.7h-2.9L5.3,283.1h3.3L38.1,360l26.1-76.9h3.1L93.4,360l29.5-76.9H126.2z"
		/>
	<path d="M225.1,361.2v2.2h-56.4v-80.3h55.2l-0.4,2.2h-51.8v35.9h48.4v2.2h-48.4v37.9H225.1z"/>
	<path d="M334.9,341.9c0,12.9-10.4,21.5-26.2,21.5h-36.9v-80.3h33.7c15.5,0,26,7.9,26,19.7c0,9.8-6.8,16.8-17.6,19.1
		C326.7,323.5,334.9,331.2,334.9,341.9z M274.7,321.1h30.4c13.8,0,23.1-7.2,23.1-17.9c0-10.7-9.5-17.9-23.9-17.9h-29.6V321.1z
		 M331.8,342.2c0-11.4-9.5-19-23.9-19h-33.2v38h33.2C322.2,361.2,331.8,353.6,331.8,342.2z"/>
	<path d="M509,323.6c0,23.9-17.2,39.8-43.1,39.8h-21.8v-80.3h21.8C491.8,283.1,509,299.3,509,323.6z M505.9,323.6
		c0-23-16.4-38.3-41-38.3h-17.8v75.9h17.8C489.4,361.2,505.9,346.1,505.9,323.6z"/>
	<path d="M614,361.2v2.2h-56.4v-80.3h55.2l-0.4,2.2h-51.8v35.9H609v2.2h-48.4v37.9H614z"/>
	<path d="M648.6,283.1h3.3l35.9,77.8l35.9-77.8h3.3l-37.7,80.3h-2.9L648.6,283.1z"/>
	<path d="M825.6,361.2v2.2h-56.4v-80.3h55.2l-0.4,2.2h-51.8v35.9h48.4v2.2h-48.4v37.9H825.6z"/>
	<path d="M922.2,361.2l-0.4,2.2h-49.6v-80.3h3v78.1H922.2z"/>
	<path d="M952.6,323.2c0-24.7,15.8-41.2,39.4-41.2c23.8,0,39.4,16.5,39.4,41.2c0,24.7-15.7,41.2-39.4,41.2
		C968.4,364.5,952.6,348,952.6,323.2z M1028.2,323.2c0-23.4-14.5-39.1-36.2-39.1c-21.7,0-36.2,15.6-36.2,39.1s14.5,39.1,36.2,39.1
		C1013.7,362.3,1028.2,346.7,1028.2,323.2z"/>
	<path d="M1142.1,306.3c0,14.1-11.1,23.4-27.7,23.4H1083v33.6h-3v-80.3h34.1C1130.9,283.1,1142.1,292.4,1142.1,306.3z M1139,306.4
		c0-12.7-10.3-21.2-25.7-21.2H1083v42.3h30.3C1128.7,327.6,1139,319.1,1139,306.4z"/>
	<path d="M1244.3,361.2v2.2h-56.4v-80.3h55.2l-0.4,2.2h-51.8v35.9h48.4v2.2h-48.4v37.9H1244.3z"/>
	<path d="M1355,363.4l-22.6-35.9c-2.2,0.3-4.6,0.5-7,0.5h-31.5v35.4h-3v-80.3h33.9c17,0,28.1,8.9,28.1,22.5
		c0,10.5-6.7,18.3-17.5,21.2l23,36.7H1355z M1349.8,305.6c0-12.3-10.3-20.3-25.6-20.3h-30.3v40.6h31.1
		C1339.9,325.8,1349.8,317.7,1349.8,305.6z"/>
</g>
</svg>
