<svg xmlns="http://www.w3.org/2000/svg" viewBox="0 0 784.62 400.34"><defs><style>.cls-1{fill:none;stroke:#041500;stroke-linecap:round;stroke-linejoin:round;stroke-width:16px;}</style></defs><title>Asset 2</title><g id="Layer_2" data-name="Layer 2"><g id="Layer_1-2" data-name="Layer 1"><path class="cls-1" d="M537.22,247.41a144.92,144.92,0,1,1-289.83,0C247.39,167.37,392.31,8,392.31,8S537.22,167.37,537.22,247.41Z"/><line class="cls-1" x1="392.31" y1="15.76" x2="392.31" y2="392.34"/><path class="cls-1" d="M8,392.34S167.36,247.41,247.39,247.41A144.92,144.92,0,0,1,392.31,392.34"/><line class="cls-1" x1="15.76" y1="392.34" x2="392.31" y2="392.34"/><path class="cls-1" d="M247.39,102.48H102.48V247.41A144.92,144.92,0,0,0,247.39,392.34H392.31V247.41A144.92,144.92,0,0,0,247.39,102.48Z"/><line class="cls-1" x1="103.42" y1="103.43" x2="246.09" y2="246.11"/><path class="cls-1" d="M776.62,392.34S617.26,247.41,537.22,247.41A144.92,144.92,0,0,0,392.31,392.34"/><line class="cls-1" x1="768.86" y1="392.34" x2="392.31" y2="392.34"/><path class="cls-1" d="M537.22,102.48H682.14V247.41A144.92,144.92,0,0,1,537.22,392.34H392.31V247.41A144.92,144.92,0,0,1,537.22,102.48Z"/><line class="cls-1" x1="681.19" y1="103.43" x2="535.47" y2="249.17"/></g></g></svg>